<mxfile host="app.diagrams.net" modified="2023-11-16T00:27:40.198Z" agent="Mozilla/5.0 (Windows NT 10.0; Win64; x64) AppleWebKit/537.36 (KHTML, like Gecko) Chrome/119.0.0.0 Safari/537.36 Edg/119.0.0.0" etag="leAo_syz_R6talUaPUTX" version="22.1.1" type="device" pages="2">
  <diagram name="seq_HienThiChiTietDon" id="13e1069c-82ec-6db2-03f1-153e76fe0fe0">
    <mxGraphModel dx="996" dy="578" grid="1" gridSize="10" guides="1" tooltips="1" connect="1" arrows="1" fold="1" page="1" pageScale="1" pageWidth="1100" pageHeight="850" background="none" math="0" shadow="0">
      <root>
        <object label="" id="0">
          <mxCell />
        </object>
        <mxCell id="1" parent="0" />
        <mxCell id="QS9p3TDiBIpv8dWYhqHS-1" value="khách hàng&lt;br&gt;Nhân Viên" style="shape=umlActor;verticalLabelPosition=bottom;verticalAlign=top;html=1;" parent="1" vertex="1">
          <mxGeometry x="105" y="70" width="40" height="60" as="geometry" />
        </mxCell>
        <mxCell id="QS9p3TDiBIpv8dWYhqHS-6" value="" style="html=1;points=[[0,0,0,0,5],[0,1,0,0,-5],[1,0,0,0,5],[1,1,0,0,-5]];perimeter=orthogonalPerimeter;outlineConnect=0;targetShapes=umlLifeline;portConstraint=eastwest;newEdgeStyle={&quot;curved&quot;:0,&quot;rounded&quot;:0};" parent="1" vertex="1">
          <mxGeometry x="120" y="170" width="10" height="770" as="geometry" />
        </mxCell>
        <mxCell id="QS9p3TDiBIpv8dWYhqHS-7" value="Truy cập trang chủ" style="html=1;verticalAlign=bottom;startArrow=none;startFill=0;endArrow=block;startSize=8;curved=0;rounded=0;" parent="1" source="QS9p3TDiBIpv8dWYhqHS-6" target="F00mptu9JCiWgJnF-Aq--6" edge="1">
          <mxGeometry width="60" relative="1" as="geometry">
            <mxPoint x="130" y="240" as="sourcePoint" />
            <mxPoint x="330" y="220" as="targetPoint" />
            <Array as="points">
              <mxPoint x="240" y="220" />
            </Array>
          </mxGeometry>
        </mxCell>
        <mxCell id="QS9p3TDiBIpv8dWYhqHS-10" value="" style="shape=umlLifeline;perimeter=lifelinePerimeter;whiteSpace=wrap;html=1;container=1;dropTarget=0;collapsible=0;recursiveResize=0;outlineConnect=0;portConstraint=eastwest;newEdgeStyle={&quot;curved&quot;:0,&quot;rounded&quot;:0};participant=umlControl;size=60;" parent="1" vertex="1">
          <mxGeometry x="670" y="80" width="60" height="860" as="geometry" />
        </mxCell>
        <mxCell id="F00mptu9JCiWgJnF-Aq--10" value="" style="html=1;points=[[0,0,0,0,5],[0,1,0,0,-5],[1,0,0,0,5],[1,1,0,0,-5]];perimeter=orthogonalPerimeter;outlineConnect=0;targetShapes=umlLifeline;portConstraint=eastwest;newEdgeStyle={&quot;curved&quot;:0,&quot;rounded&quot;:0};" parent="QS9p3TDiBIpv8dWYhqHS-10" vertex="1">
          <mxGeometry x="25" y="210" width="10" height="350" as="geometry" />
        </mxCell>
        <mxCell id="nVd_50hl1OCLDKFxrgy5-35" value="" style="html=1;points=[[0,0,0,0,5],[0,1,0,0,-5],[1,0,0,0,5],[1,1,0,0,-5]];perimeter=orthogonalPerimeter;outlineConnect=0;targetShapes=umlLifeline;portConstraint=eastwest;newEdgeStyle={&quot;curved&quot;:0,&quot;rounded&quot;:0};" parent="QS9p3TDiBIpv8dWYhqHS-10" vertex="1">
          <mxGeometry x="25" y="600" width="10" height="40" as="geometry" />
        </mxCell>
        <mxCell id="QS9p3TDiBIpv8dWYhqHS-11" value="" style="shape=umlLifeline;perimeter=lifelinePerimeter;whiteSpace=wrap;html=1;container=1;dropTarget=0;collapsible=0;recursiveResize=0;outlineConnect=0;portConstraint=eastwest;newEdgeStyle={&quot;curved&quot;:0,&quot;rounded&quot;:0};participant=umlBoundary;size=60;" parent="1" vertex="1">
          <mxGeometry x="290" y="85" width="70" height="850" as="geometry" />
        </mxCell>
        <mxCell id="F00mptu9JCiWgJnF-Aq--6" value="" style="html=1;points=[[0,0,0,0,5],[0,1,0,0,-5],[1,0,0,0,5],[1,1,0,0,-5]];perimeter=orthogonalPerimeter;outlineConnect=0;targetShapes=umlLifeline;portConstraint=eastwest;newEdgeStyle={&quot;curved&quot;:0,&quot;rounded&quot;:0};" parent="QS9p3TDiBIpv8dWYhqHS-11" vertex="1">
          <mxGeometry x="30" y="120" width="10" height="130" as="geometry" />
        </mxCell>
        <mxCell id="QS9p3TDiBIpv8dWYhqHS-12" value=":Database&lt;br&gt;" style="shape=umlLifeline;perimeter=lifelinePerimeter;whiteSpace=wrap;html=1;container=1;dropTarget=0;collapsible=0;recursiveResize=0;outlineConnect=0;portConstraint=eastwest;newEdgeStyle={&quot;curved&quot;:0,&quot;rounded&quot;:0};size=70;" parent="1" vertex="1">
          <mxGeometry x="850" y="80" width="100" height="850" as="geometry" />
        </mxCell>
        <mxCell id="F00mptu9JCiWgJnF-Aq--8" value="" style="html=1;points=[[0,0,0,0,5],[0,1,0,0,-5],[1,0,0,0,5],[1,1,0,0,-5]];perimeter=orthogonalPerimeter;outlineConnect=0;targetShapes=umlLifeline;portConstraint=eastwest;newEdgeStyle={&quot;curved&quot;:0,&quot;rounded&quot;:0};" parent="QS9p3TDiBIpv8dWYhqHS-12" vertex="1">
          <mxGeometry x="45" y="230" width="10" height="110" as="geometry" />
        </mxCell>
        <mxCell id="F00mptu9JCiWgJnF-Aq--1" value="veiw đơn hàng" style="text;html=1;align=center;verticalAlign=middle;resizable=0;points=[];autosize=1;strokeColor=none;fillColor=none;" parent="1" vertex="1">
          <mxGeometry x="275" y="150" width="100" height="30" as="geometry" />
        </mxCell>
        <mxCell id="F00mptu9JCiWgJnF-Aq--2" value="controller đơn hàng" style="text;html=1;align=center;verticalAlign=middle;resizable=0;points=[];autosize=1;strokeColor=none;fillColor=none;" parent="1" vertex="1">
          <mxGeometry x="635" y="150" width="130" height="30" as="geometry" />
        </mxCell>
        <mxCell id="F00mptu9JCiWgJnF-Aq--5" value="Chọn &quot;đơn hàng&quot;" style="html=1;verticalAlign=bottom;startArrow=none;startFill=0;endArrow=block;startSize=8;curved=0;rounded=0;" parent="1" source="QS9p3TDiBIpv8dWYhqHS-6" target="F00mptu9JCiWgJnF-Aq--6" edge="1">
          <mxGeometry width="60" relative="1" as="geometry">
            <mxPoint x="550" y="370" as="sourcePoint" />
            <mxPoint x="320" y="270" as="targetPoint" />
            <Array as="points">
              <mxPoint x="260" y="270" />
            </Array>
          </mxGeometry>
        </mxCell>
        <mxCell id="F00mptu9JCiWgJnF-Aq--7" value="Tạo truy vấn xem các đơn hàng" style="html=1;verticalAlign=bottom;startArrow=none;startFill=0;endArrow=block;startSize=8;curved=0;rounded=0;" parent="1" source="F00mptu9JCiWgJnF-Aq--6" target="F00mptu9JCiWgJnF-Aq--10" edge="1">
          <mxGeometry width="60" relative="1" as="geometry">
            <mxPoint x="380" y="320" as="sourcePoint" />
            <mxPoint x="570" y="310" as="targetPoint" />
            <Array as="points">
              <mxPoint x="490" y="310" />
            </Array>
          </mxGeometry>
        </mxCell>
        <mxCell id="F00mptu9JCiWgJnF-Aq--9" value="Trả về kết quả xem các đơn hàng" style="html=1;verticalAlign=bottom;startArrow=none;startFill=0;endArrow=open;startSize=8;curved=0;rounded=0;dashed=1;endFill=0;" parent="1" source="F00mptu9JCiWgJnF-Aq--8" edge="1">
          <mxGeometry width="60" relative="1" as="geometry">
            <mxPoint x="875" y="376" as="sourcePoint" />
            <mxPoint x="705" y="376" as="targetPoint" />
            <Array as="points">
              <mxPoint x="760" y="376" />
            </Array>
            <mxPoint as="offset" />
          </mxGeometry>
        </mxCell>
        <mxCell id="F00mptu9JCiWgJnF-Aq--13" value="Lấy ra kết quả xem các đơn hàng" style="html=1;verticalAlign=bottom;startArrow=none;startFill=0;endArrow=block;startSize=8;curved=0;rounded=0;" parent="1" source="F00mptu9JCiWgJnF-Aq--10" target="F00mptu9JCiWgJnF-Aq--8" edge="1">
          <mxGeometry width="60" relative="1" as="geometry">
            <mxPoint x="620" y="330" as="sourcePoint" />
            <mxPoint x="850" y="325" as="targetPoint" />
            <Array as="points">
              <mxPoint x="750" y="335" />
            </Array>
          </mxGeometry>
        </mxCell>
        <mxCell id="nVd_50hl1OCLDKFxrgy5-2" value="alt" style="shape=umlFrame;whiteSpace=wrap;html=1;pointerEvents=0;" parent="1" vertex="1">
          <mxGeometry y="390" width="990" height="470" as="geometry" />
        </mxCell>
        <mxCell id="nVd_50hl1OCLDKFxrgy5-4" value="" style="endArrow=none;dashed=1;html=1;rounded=0;exitX=0.001;exitY=0.118;exitDx=0;exitDy=0;exitPerimeter=0;entryX=1.001;entryY=0.119;entryDx=0;entryDy=0;entryPerimeter=0;" parent="1" source="nVd_50hl1OCLDKFxrgy5-2" target="nVd_50hl1OCLDKFxrgy5-2" edge="1">
          <mxGeometry width="50" height="50" relative="1" as="geometry">
            <mxPoint x="-10" y="480" as="sourcePoint" />
            <mxPoint x="990" y="480" as="targetPoint" />
            <Array as="points" />
          </mxGeometry>
        </mxCell>
        <mxCell id="nVd_50hl1OCLDKFxrgy5-6" value="[invalid]" style="text;html=1;align=center;verticalAlign=middle;resizable=0;points=[];autosize=1;strokeColor=none;fillColor=none;" parent="1" vertex="1">
          <mxGeometry x="50" y="410" width="60" height="30" as="geometry" />
        </mxCell>
        <mxCell id="nVd_50hl1OCLDKFxrgy5-7" value="[valid]" style="text;html=1;align=center;verticalAlign=middle;resizable=0;points=[];autosize=1;strokeColor=none;fillColor=none;" parent="1" vertex="1">
          <mxGeometry x="55" y="470" width="50" height="30" as="geometry" />
        </mxCell>
        <mxCell id="nVd_50hl1OCLDKFxrgy5-8" value="Thông báo lỗi" style="html=1;verticalAlign=bottom;startArrow=none;startFill=0;endArrow=open;startSize=8;curved=0;rounded=0;dashed=1;endFill=0;" parent="1" target="nVd_50hl1OCLDKFxrgy5-9" edge="1">
          <mxGeometry width="60" relative="1" as="geometry">
            <mxPoint x="695" y="417" as="sourcePoint" />
            <mxPoint x="350" y="417" as="targetPoint" />
            <Array as="points">
              <mxPoint x="530" y="417" />
            </Array>
          </mxGeometry>
        </mxCell>
        <mxCell id="nVd_50hl1OCLDKFxrgy5-9" value="" style="html=1;points=[[0,0,0,0,5],[0,1,0,0,-5],[1,0,0,0,5],[1,1,0,0,-5]];perimeter=orthogonalPerimeter;outlineConnect=0;targetShapes=umlLifeline;portConstraint=eastwest;newEdgeStyle={&quot;curved&quot;:0,&quot;rounded&quot;:0};" parent="1" vertex="1">
          <mxGeometry x="320" y="397" width="10" height="30" as="geometry" />
        </mxCell>
        <mxCell id="nVd_50hl1OCLDKFxrgy5-14" value="Hiển thị danh sách lịch sử đơn" style="html=1;verticalAlign=bottom;startArrow=none;startFill=0;endArrow=open;startSize=8;curved=0;rounded=0;dashed=1;endFill=0;" parent="1" target="nVd_50hl1OCLDKFxrgy5-13" edge="1">
          <mxGeometry width="60" relative="1" as="geometry">
            <mxPoint x="695" y="479.3800000000001" as="sourcePoint" />
            <mxPoint x="390" y="478.38" as="targetPoint" />
            <Array as="points">
              <mxPoint x="557.5" y="479.38" />
            </Array>
          </mxGeometry>
        </mxCell>
        <mxCell id="nVd_50hl1OCLDKFxrgy5-17" value="Chọn đơn cần xem chi tiết" style="html=1;verticalAlign=bottom;startArrow=none;startFill=0;endArrow=block;startSize=8;curved=0;rounded=0;" parent="1" target="nVd_50hl1OCLDKFxrgy5-13" edge="1">
          <mxGeometry width="60" relative="1" as="geometry">
            <mxPoint x="130" y="513" as="sourcePoint" />
            <mxPoint x="340" y="513" as="targetPoint" />
            <Array as="points">
              <mxPoint x="260" y="513" />
            </Array>
          </mxGeometry>
        </mxCell>
        <mxCell id="nVd_50hl1OCLDKFxrgy5-18" value="Tạo truy vấn xem chi tiết đơn hàng" style="html=1;verticalAlign=bottom;startArrow=none;startFill=0;endArrow=block;startSize=8;curved=0;rounded=0;" parent="1" source="nVd_50hl1OCLDKFxrgy5-13" edge="1">
          <mxGeometry width="60" relative="1" as="geometry">
            <mxPoint x="390" y="539" as="sourcePoint" />
            <mxPoint x="695" y="549" as="targetPoint" />
            <Array as="points">
              <mxPoint x="540" y="549" />
            </Array>
          </mxGeometry>
        </mxCell>
        <mxCell id="nVd_50hl1OCLDKFxrgy5-19" value="Lấy ra kết quả xem chi tiết đơn hàng" style="html=1;verticalAlign=bottom;startArrow=none;startFill=0;endArrow=block;startSize=8;curved=0;rounded=0;" parent="1" source="F00mptu9JCiWgJnF-Aq--10" target="nVd_50hl1OCLDKFxrgy5-20" edge="1">
          <mxGeometry width="60" relative="1" as="geometry">
            <mxPoint x="605" y="573" as="sourcePoint" />
            <mxPoint x="875" y="573" as="targetPoint" />
            <Array as="points">
              <mxPoint x="760" y="573" />
            </Array>
          </mxGeometry>
        </mxCell>
        <mxCell id="nVd_50hl1OCLDKFxrgy5-20" value="" style="html=1;points=[[0,0,0,0,5],[0,1,0,0,-5],[1,0,0,0,5],[1,1,0,0,-5]];perimeter=orthogonalPerimeter;outlineConnect=0;targetShapes=umlLifeline;portConstraint=eastwest;newEdgeStyle={&quot;curved&quot;:0,&quot;rounded&quot;:0};" parent="1" vertex="1">
          <mxGeometry x="895" y="560" width="10" height="90" as="geometry" />
        </mxCell>
        <mxCell id="nVd_50hl1OCLDKFxrgy5-21" value="Trả về kết quả xem chi tiết đơn hàng" style="html=1;verticalAlign=bottom;startArrow=none;startFill=0;endArrow=open;startSize=8;curved=0;rounded=0;dashed=1;endFill=0;" parent="1" source="nVd_50hl1OCLDKFxrgy5-20" target="F00mptu9JCiWgJnF-Aq--10" edge="1">
          <mxGeometry width="60" relative="1" as="geometry">
            <mxPoint x="875" y="616" as="sourcePoint" />
            <mxPoint x="720" y="616" as="targetPoint" />
            <Array as="points">
              <mxPoint x="770" y="616" />
            </Array>
            <mxPoint as="offset" />
          </mxGeometry>
        </mxCell>
        <mxCell id="nVd_50hl1OCLDKFxrgy5-22" value="alt" style="shape=umlFrame;whiteSpace=wrap;html=1;pointerEvents=0;" parent="1" vertex="1">
          <mxGeometry x="340" y="660" width="610" height="170" as="geometry" />
        </mxCell>
        <mxCell id="nVd_50hl1OCLDKFxrgy5-23" value="" style="endArrow=none;dashed=1;html=1;rounded=0;entryX=1.002;entryY=0.432;entryDx=0;entryDy=0;entryPerimeter=0;exitX=0;exitY=0.426;exitDx=0;exitDy=0;exitPerimeter=0;" parent="1" source="nVd_50hl1OCLDKFxrgy5-22" target="nVd_50hl1OCLDKFxrgy5-22" edge="1">
          <mxGeometry width="50" height="50" relative="1" as="geometry">
            <mxPoint x="340" y="745" as="sourcePoint" />
            <mxPoint x="932.3699999999999" y="745.288" as="targetPoint" />
            <Array as="points" />
          </mxGeometry>
        </mxCell>
        <mxCell id="nVd_50hl1OCLDKFxrgy5-24" value="[invalid]" style="text;html=1;align=center;verticalAlign=middle;resizable=0;points=[];autosize=1;strokeColor=none;fillColor=none;" parent="1" vertex="1">
          <mxGeometry x="410" y="700" width="60" height="30" as="geometry" />
        </mxCell>
        <mxCell id="nVd_50hl1OCLDKFxrgy5-25" value="[valid]" style="text;html=1;align=center;verticalAlign=middle;resizable=0;points=[];autosize=1;strokeColor=none;fillColor=none;" parent="1" vertex="1">
          <mxGeometry x="420" y="775" width="50" height="30" as="geometry" />
        </mxCell>
        <mxCell id="nVd_50hl1OCLDKFxrgy5-27" value="Thông báo lỗi" style="html=1;verticalAlign=bottom;startArrow=none;startFill=0;endArrow=open;startSize=8;curved=0;rounded=0;dashed=1;endFill=0;" parent="1" source="nVd_50hl1OCLDKFxrgy5-35" target="nVd_50hl1OCLDKFxrgy5-26" edge="1">
          <mxGeometry width="60" relative="1" as="geometry">
            <mxPoint x="607.5" y="709.38" as="sourcePoint" />
            <mxPoint x="382.5" y="709.38" as="targetPoint" />
            <Array as="points">
              <mxPoint x="542.5" y="709.38" />
            </Array>
          </mxGeometry>
        </mxCell>
        <mxCell id="nVd_50hl1OCLDKFxrgy5-28" value="Hiển thị chi tiết đơn" style="html=1;verticalAlign=bottom;startArrow=none;startFill=0;endArrow=open;startSize=8;curved=0;rounded=0;dashed=1;endFill=0;" parent="1" edge="1">
          <mxGeometry width="60" relative="1" as="geometry">
            <mxPoint x="695" y="789.38" as="sourcePoint" />
            <mxPoint x="530" y="789.38" as="targetPoint" />
            <Array as="points">
              <mxPoint x="547.5" y="789.38" />
            </Array>
          </mxGeometry>
        </mxCell>
        <mxCell id="nVd_50hl1OCLDKFxrgy5-30" value="" style="shape=umlLifeline;perimeter=lifelinePerimeter;whiteSpace=wrap;html=1;container=1;dropTarget=0;collapsible=0;recursiveResize=0;outlineConnect=0;portConstraint=eastwest;newEdgeStyle={&quot;curved&quot;:0,&quot;rounded&quot;:0};participant=umlBoundary;size=60;" parent="1" vertex="1">
          <mxGeometry x="490" y="80" width="70" height="850" as="geometry" />
        </mxCell>
        <mxCell id="nVd_50hl1OCLDKFxrgy5-26" value="" style="html=1;points=[[0,0,0,0,5],[0,1,0,0,-5],[1,0,0,0,5],[1,1,0,0,-5]];perimeter=orthogonalPerimeter;outlineConnect=0;targetShapes=umlLifeline;portConstraint=eastwest;newEdgeStyle={&quot;curved&quot;:0,&quot;rounded&quot;:0};" parent="nVd_50hl1OCLDKFxrgy5-30" vertex="1">
          <mxGeometry x="29" y="610" width="10" height="40" as="geometry" />
        </mxCell>
        <mxCell id="nVd_50hl1OCLDKFxrgy5-29" value="" style="html=1;points=[[0,0,0,0,5],[0,1,0,0,-5],[1,0,0,0,5],[1,1,0,0,-5]];perimeter=orthogonalPerimeter;outlineConnect=0;targetShapes=umlLifeline;portConstraint=eastwest;newEdgeStyle={&quot;curved&quot;:0,&quot;rounded&quot;:0};" parent="nVd_50hl1OCLDKFxrgy5-30" vertex="1">
          <mxGeometry x="30" y="690" width="10" height="40" as="geometry" />
        </mxCell>
        <mxCell id="nVd_50hl1OCLDKFxrgy5-32" value="view chi tiết đơn" style="text;html=1;align=center;verticalAlign=middle;resizable=0;points=[];autosize=1;strokeColor=none;fillColor=none;" parent="1" vertex="1">
          <mxGeometry x="470" y="150" width="110" height="30" as="geometry" />
        </mxCell>
        <mxCell id="nVd_50hl1OCLDKFxrgy5-13" value="" style="html=1;points=[[0,0,0,0,5],[0,1,0,0,-5],[1,0,0,0,5],[1,1,0,0,-5]];perimeter=orthogonalPerimeter;outlineConnect=0;targetShapes=umlLifeline;portConstraint=eastwest;newEdgeStyle={&quot;curved&quot;:0,&quot;rounded&quot;:0};" parent="1" vertex="1">
          <mxGeometry x="320" y="452" width="10" height="116" as="geometry" />
        </mxCell>
        <mxCell id="nVd_50hl1OCLDKFxrgy5-36" value="" style="html=1;points=[[0,0,0,0,5],[0,1,0,0,-5],[1,0,0,0,5],[1,1,0,0,-5]];perimeter=orthogonalPerimeter;outlineConnect=0;targetShapes=umlLifeline;portConstraint=eastwest;newEdgeStyle={&quot;curved&quot;:0,&quot;rounded&quot;:0};" parent="1" vertex="1">
          <mxGeometry x="695" y="770" width="10" height="40" as="geometry" />
        </mxCell>
      </root>
    </mxGraphModel>
  </diagram>
  <diagram id="cqIO7ArdhiRshpdzXK_l" name="seq_TimKiemLichSuDon">
    <mxGraphModel dx="996" dy="578" grid="1" gridSize="10" guides="1" tooltips="1" connect="1" arrows="1" fold="1" page="1" pageScale="1" pageWidth="827" pageHeight="1169" math="0" shadow="0">
      <root>
        <mxCell id="0" />
        <mxCell id="1" parent="0" />
        <mxCell id="qnqIdT73rdGU5kgS5fRj-1" value="" style="shape=umlLifeline;perimeter=lifelinePerimeter;whiteSpace=wrap;html=1;container=1;dropTarget=0;collapsible=0;recursiveResize=0;outlineConnect=0;portConstraint=eastwest;newEdgeStyle={&quot;curved&quot;:0,&quot;rounded&quot;:0};participant=umlActor;" parent="1" vertex="1">
          <mxGeometry x="80" y="40" width="40" height="560" as="geometry" />
        </mxCell>
        <mxCell id="qnqIdT73rdGU5kgS5fRj-3" value="" style="html=1;points=[[0,0,0,0,5],[0,1,0,0,-5],[1,0,0,0,5],[1,1,0,0,-5]];perimeter=orthogonalPerimeter;outlineConnect=0;targetShapes=umlLifeline;portConstraint=eastwest;newEdgeStyle={&quot;curved&quot;:0,&quot;rounded&quot;:0};" parent="qnqIdT73rdGU5kgS5fRj-1" vertex="1">
          <mxGeometry x="12.5" y="95" width="15" height="455" as="geometry" />
        </mxCell>
        <mxCell id="qnqIdT73rdGU5kgS5fRj-2" value="Nhân viên" style="text;html=1;strokeColor=none;fillColor=none;align=center;verticalAlign=middle;whiteSpace=wrap;rounded=0;" parent="1" vertex="1">
          <mxGeometry x="66" y="80" width="60" height="30" as="geometry" />
        </mxCell>
        <mxCell id="EeJ_dPX3RxNY-6Tc5CYl-1" value="" style="shape=umlLifeline;perimeter=lifelinePerimeter;whiteSpace=wrap;html=1;container=1;dropTarget=0;collapsible=0;recursiveResize=0;outlineConnect=0;portConstraint=eastwest;newEdgeStyle={&quot;curved&quot;:0,&quot;rounded&quot;:0};participant=umlBoundary;size=60;" parent="1" vertex="1">
          <mxGeometry x="245" y="40" width="70" height="560" as="geometry" />
        </mxCell>
        <mxCell id="EeJ_dPX3RxNY-6Tc5CYl-2" value="" style="html=1;points=[[0,0,0,0,5],[0,1,0,0,-5],[1,0,0,0,5],[1,1,0,0,-5]];perimeter=orthogonalPerimeter;outlineConnect=0;targetShapes=umlLifeline;portConstraint=eastwest;newEdgeStyle={&quot;curved&quot;:0,&quot;rounded&quot;:0};" parent="EeJ_dPX3RxNY-6Tc5CYl-1" vertex="1">
          <mxGeometry x="30" y="120" width="10" height="120" as="geometry" />
        </mxCell>
        <mxCell id="EeJ_dPX3RxNY-6Tc5CYl-3" value="veiw đơn đặt" style="text;html=1;align=center;verticalAlign=middle;resizable=0;points=[];autosize=1;strokeColor=none;fillColor=none;" parent="1" vertex="1">
          <mxGeometry x="235" y="105" width="90" height="30" as="geometry" />
        </mxCell>
        <mxCell id="ffNIpavOgTfp_mF3qjXB-1" value="" style="shape=umlLifeline;perimeter=lifelinePerimeter;whiteSpace=wrap;html=1;container=1;dropTarget=0;collapsible=0;recursiveResize=0;outlineConnect=0;portConstraint=eastwest;newEdgeStyle={&quot;curved&quot;:0,&quot;rounded&quot;:0};participant=umlControl;size=60;" parent="1" vertex="1">
          <mxGeometry x="450" y="40" width="60" height="560" as="geometry" />
        </mxCell>
        <mxCell id="bVPPKG_L1WfrjGzPYYE2-5" value="" style="html=1;points=[[0,0,0,0,5],[0,1,0,0,-5],[1,0,0,0,5],[1,1,0,0,-5]];perimeter=orthogonalPerimeter;outlineConnect=0;targetShapes=umlLifeline;portConstraint=eastwest;newEdgeStyle={&quot;curved&quot;:0,&quot;rounded&quot;:0};" parent="ffNIpavOgTfp_mF3qjXB-1" vertex="1">
          <mxGeometry x="25" y="220" width="10" height="260" as="geometry" />
        </mxCell>
        <mxCell id="ffNIpavOgTfp_mF3qjXB-4" value="controller đơn đặt" style="text;html=1;align=center;verticalAlign=middle;resizable=0;points=[];autosize=1;strokeColor=none;fillColor=none;" parent="1" vertex="1">
          <mxGeometry x="420" y="110" width="120" height="30" as="geometry" />
        </mxCell>
        <mxCell id="bVPPKG_L1WfrjGzPYYE2-1" value=":Database&lt;br&gt;" style="shape=umlLifeline;perimeter=lifelinePerimeter;whiteSpace=wrap;html=1;container=1;dropTarget=0;collapsible=0;recursiveResize=0;outlineConnect=0;portConstraint=eastwest;newEdgeStyle={&quot;curved&quot;:0,&quot;rounded&quot;:0};size=70;" parent="1" vertex="1">
          <mxGeometry x="640" y="40" width="100" height="560" as="geometry" />
        </mxCell>
        <mxCell id="bVPPKG_L1WfrjGzPYYE2-2" value="" style="html=1;points=[[0,0,0,0,5],[0,1,0,0,-5],[1,0,0,0,5],[1,1,0,0,-5]];perimeter=orthogonalPerimeter;outlineConnect=0;targetShapes=umlLifeline;portConstraint=eastwest;newEdgeStyle={&quot;curved&quot;:0,&quot;rounded&quot;:0};" parent="bVPPKG_L1WfrjGzPYYE2-1" vertex="1">
          <mxGeometry x="45" y="230" width="10" height="70" as="geometry" />
        </mxCell>
        <mxCell id="bVPPKG_L1WfrjGzPYYE2-3" value="Bấm vào &quot;xem đơn đặt&quot;" style="html=1;verticalAlign=bottom;endArrow=block;curved=0;rounded=0;" parent="1" source="qnqIdT73rdGU5kgS5fRj-3" target="EeJ_dPX3RxNY-6Tc5CYl-2" edge="1">
          <mxGeometry width="80" relative="1" as="geometry">
            <mxPoint x="150" y="180" as="sourcePoint" />
            <mxPoint x="520" y="290" as="targetPoint" />
            <Array as="points">
              <mxPoint x="200" y="190" />
            </Array>
          </mxGeometry>
        </mxCell>
        <mxCell id="bVPPKG_L1WfrjGzPYYE2-4" value="Bấm vào thanh tìm kiếm" style="html=1;verticalAlign=bottom;endArrow=block;curved=0;rounded=0;" parent="1" source="qnqIdT73rdGU5kgS5fRj-3" target="EeJ_dPX3RxNY-6Tc5CYl-2" edge="1">
          <mxGeometry width="80" relative="1" as="geometry">
            <mxPoint x="110" y="250" as="sourcePoint" />
            <mxPoint x="277" y="250" as="targetPoint" />
            <Array as="points">
              <mxPoint x="202" y="250" />
            </Array>
          </mxGeometry>
        </mxCell>
        <mxCell id="bVPPKG_L1WfrjGzPYYE2-6" value="Truy vấn tìm kiếm thông tin" style="html=1;verticalAlign=bottom;endArrow=block;curved=0;rounded=0;" parent="1" source="EeJ_dPX3RxNY-6Tc5CYl-2" target="bVPPKG_L1WfrjGzPYYE2-5" edge="1">
          <mxGeometry width="80" relative="1" as="geometry">
            <mxPoint x="290" y="270" as="sourcePoint" />
            <mxPoint x="515" y="280" as="targetPoint" />
            <Array as="points">
              <mxPoint x="392" y="270" />
              <mxPoint x="420" y="270" />
            </Array>
          </mxGeometry>
        </mxCell>
        <mxCell id="bVPPKG_L1WfrjGzPYYE2-9" value="Lấy thông tin tìm kiếm" style="html=1;verticalAlign=bottom;endArrow=block;curved=0;rounded=0;" parent="1" edge="1">
          <mxGeometry width="80" relative="1" as="geometry">
            <mxPoint x="485" y="288" as="sourcePoint" />
            <mxPoint x="685" y="288" as="targetPoint" />
            <Array as="points">
              <mxPoint x="592" y="288" />
            </Array>
          </mxGeometry>
        </mxCell>
        <mxCell id="bVPPKG_L1WfrjGzPYYE2-10" value="Trả về thông tin tìm kiếm" style="html=1;verticalAlign=bottom;endArrow=block;curved=0;rounded=0;dashed=1;" parent="1" edge="1">
          <mxGeometry width="80" relative="1" as="geometry">
            <mxPoint x="685" y="319" as="sourcePoint" />
            <mxPoint x="485" y="319" as="targetPoint" />
          </mxGeometry>
        </mxCell>
        <mxCell id="fQSauSbLIbbBNUWxL3Pg-1" value="alt" style="shape=umlFrame;whiteSpace=wrap;html=1;pointerEvents=0;" parent="1" vertex="1">
          <mxGeometry x="10" y="355" width="730" height="185" as="geometry" />
        </mxCell>
        <mxCell id="fQSauSbLIbbBNUWxL3Pg-2" value="[invalid]" style="text;html=1;align=center;verticalAlign=middle;resizable=0;points=[];autosize=1;strokeColor=none;fillColor=none;" parent="1" vertex="1">
          <mxGeometry x="21" y="395" width="60" height="30" as="geometry" />
        </mxCell>
        <mxCell id="fQSauSbLIbbBNUWxL3Pg-3" value="[valid]" style="text;html=1;align=center;verticalAlign=middle;resizable=0;points=[];autosize=1;strokeColor=none;fillColor=none;" parent="1" vertex="1">
          <mxGeometry x="25" y="468" width="50" height="30" as="geometry" />
        </mxCell>
        <mxCell id="fQSauSbLIbbBNUWxL3Pg-4" value="" style="html=1;points=[[0,0,0,0,5],[0,1,0,0,-5],[1,0,0,0,5],[1,1,0,0,-5]];perimeter=orthogonalPerimeter;outlineConnect=0;targetShapes=umlLifeline;portConstraint=eastwest;newEdgeStyle={&quot;curved&quot;:0,&quot;rounded&quot;:0};" parent="1" vertex="1">
          <mxGeometry x="275" y="370" width="10" height="50" as="geometry" />
        </mxCell>
        <mxCell id="MErgyd6WJbIpE58XCf2w-1" value="Thông báo lỗi" style="html=1;verticalAlign=bottom;endArrow=block;curved=0;rounded=0;dashed=1;" parent="1" edge="1">
          <mxGeometry width="80" relative="1" as="geometry">
            <mxPoint x="475" y="395.0000000000001" as="sourcePoint" />
            <mxPoint x="285" y="395.0000000000001" as="targetPoint" />
          </mxGeometry>
        </mxCell>
        <mxCell id="MErgyd6WJbIpE58XCf2w-2" value="" style="html=1;verticalAlign=bottom;endArrow=none;curved=0;rounded=0;dashed=1;entryX=-0.001;entryY=0.409;entryDx=0;entryDy=0;entryPerimeter=0;endFill=0;" parent="1" target="fQSauSbLIbbBNUWxL3Pg-1" edge="1">
          <mxGeometry width="80" relative="1" as="geometry">
            <mxPoint x="740" y="437" as="sourcePoint" />
            <mxPoint x="11.460000000000036" y="434" as="targetPoint" />
          </mxGeometry>
        </mxCell>
        <mxCell id="MErgyd6WJbIpE58XCf2w-3" value="" style="html=1;points=[[0,0,0,0,5],[0,1,0,0,-5],[1,0,0,0,5],[1,1,0,0,-5]];perimeter=orthogonalPerimeter;outlineConnect=0;targetShapes=umlLifeline;portConstraint=eastwest;newEdgeStyle={&quot;curved&quot;:0,&quot;rounded&quot;:0};" parent="1" vertex="1">
          <mxGeometry x="275" y="470" width="10" height="50" as="geometry" />
        </mxCell>
        <mxCell id="MErgyd6WJbIpE58XCf2w-4" value="Hiển thị thông tin tìm kiếm" style="html=1;verticalAlign=bottom;endArrow=block;curved=0;rounded=0;dashed=1;" parent="1" edge="1">
          <mxGeometry width="80" relative="1" as="geometry">
            <mxPoint x="475" y="489.9999999999999" as="sourcePoint" />
            <mxPoint x="285" y="489.9999999999999" as="targetPoint" />
          </mxGeometry>
        </mxCell>
      </root>
    </mxGraphModel>
  </diagram>
</mxfile>
